REM DIRINDEX 1\2,1\3,1\4,1\5,1\6
REM DIRNAME folder01,folder02,folder03,folder04,folder05,folder06
TITLE ""
FILE "Disc6Track02.mp3" MP3
  TRACK 01 AUDIO
    TITLE "3:cjc030_10383"
    INDEX 01 00:00:00
  TRACK 02 AUDIO
    TITLE "0:"
    INDEX 01 00:01:07
  TRACK 03 AUDIO
    TITLE "4:cjc030_10384"
    INDEX 01 00:01:15
  TRACK 04 AUDIO
    TITLE "0:"
    INDEX 01 00:02:12
  TRACK 05 AUDIO
    TITLE "5:cjc030_10385"
    INDEX 01 00:02:22
  TRACK 06 AUDIO
    TITLE "0:"
    INDEX 01 00:03:31
  TRACK 07 AUDIO
    TITLE "6:cjc030_10386"
    INDEX 01 00:03:47
  TRACK 08 AUDIO
    TITLE "0:"
    INDEX 01 00:05:30
  TRACK 09 AUDIO
    TITLE "3:cjc030_10387"
    INDEX 01 00:06:06
  TRACK 10 AUDIO
    TITLE "0:"
    INDEX 01 00:07:07
  TRACK 11 AUDIO
    TITLE "4:cjc030_10388"
    INDEX 01 00:07:15
  TRACK 12 AUDIO
    TITLE "0:"
    INDEX 01 00:08:15
  TRACK 13 AUDIO
    TITLE "5:cjc030_10389"
    INDEX 01 00:08:21
  TRACK 14 AUDIO
    TITLE "0:"
    INDEX 01 00:09:24
  TRACK 15 AUDIO
    TITLE "6:cjc030_10390"
    INDEX 01 00:09:42
  TRACK 16 AUDIO
    TITLE "0:"
    INDEX 01 00:13:73
  TRACK 17 AUDIO
    TITLE "3:cjc030_10391"
    INDEX 01 00:14:47
  TRACK 18 AUDIO
    TITLE "0:"
    INDEX 01 00:15:64
  TRACK 19 AUDIO
    TITLE "4:cjc030_10392"
    INDEX 01 00:15:70
  TRACK 20 AUDIO
    TITLE "0:"
    INDEX 01 00:17:70
  TRACK 21 AUDIO
    TITLE "5:cjc030_10393"
    INDEX 01 00:18:05
  TRACK 22 AUDIO
    TITLE "0:"
    INDEX 01 00:19:18
  TRACK 23 AUDIO
    TITLE "6:cjc030_10394"
    INDEX 01 00:19:34
  TRACK 24 AUDIO
    TITLE "0:"
    INDEX 01 00:25:39
  TRACK 25 AUDIO
    TITLE "3:cjc030_10395"
    INDEX 01 00:26:11
  TRACK 26 AUDIO
    TITLE "0:"
    INDEX 01 00:27:20
  TRACK 27 AUDIO
    TITLE "4:cjc030_10396"
    INDEX 01 00:27:30
  TRACK 28 AUDIO
    TITLE "0:"
    INDEX 01 00:28:35
  TRACK 29 AUDIO
    TITLE "5:cjc030_10397"
    INDEX 01 00:28:45
  TRACK 30 AUDIO
    TITLE "0:"
    INDEX 01 00:29:52
  TRACK 31 AUDIO
    TITLE "6:cjc030_10398"
    INDEX 01 00:29:68
  TRACK 32 AUDIO
    TITLE "0:"
    INDEX 01 00:32:05
  TRACK 33 AUDIO
    TITLE "3:cjc030_10399"
    INDEX 01 00:32:52
  TRACK 34 AUDIO
    TITLE "0:"
    INDEX 01 00:33:62
  TRACK 35 AUDIO
    TITLE "4:cjc030_10400"
    INDEX 01 00:33:71
  TRACK 36 AUDIO
    TITLE "0:"
    INDEX 01 00:35:06
  TRACK 37 AUDIO
    TITLE "5:cjc030_10401"
    INDEX 01 00:35:15
  TRACK 38 AUDIO
    TITLE "0:"
    INDEX 01 00:36:25
  TRACK 39 AUDIO
    TITLE "3:cjc030_10402"
    INDEX 01 00:37:03
  TRACK 40 AUDIO
    TITLE "0:"
    INDEX 01 00:38:12
  TRACK 41 AUDIO
    TITLE "4:cjc030_10403"
    INDEX 01 00:38:22
  TRACK 42 AUDIO
    TITLE "0:"
    INDEX 01 00:39:27
  TRACK 43 AUDIO
    TITLE "5:cjc030_10404"
    INDEX 01 00:39:35
  TRACK 44 AUDIO
    TITLE "0:"
    INDEX 01 00:40:44
  TRACK 45 AUDIO
    TITLE "6:cjc030_10405"
    INDEX 01 00:40:60
  TRACK 46 AUDIO
    TITLE "0:"
    INDEX 01 00:44:20
  TRACK 47 AUDIO
    TITLE "3:cjc030_10406"
    INDEX 01 00:44:69
  TRACK 48 AUDIO
    TITLE "0:"
    INDEX 01 00:45:69
  TRACK 49 AUDIO
    TITLE "4:cjc030_10407"
    INDEX 01 00:46:00
  TRACK 50 AUDIO
    TITLE "0:"
    INDEX 01 00:47:17
  TRACK 51 AUDIO
    TITLE "5:cjc030_10408"
    INDEX 01 00:47:21
  TRACK 52 AUDIO
    TITLE "0:"
    INDEX 01 00:48:28
  TRACK 53 AUDIO
    TITLE "6:cjc030_10409"
    INDEX 01 00:48:42
  TRACK 54 AUDIO
    TITLE "0:"
    INDEX 01 00:52:28
  TRACK 55 AUDIO
    TITLE "3:cjc030_10410"
    INDEX 01 00:53:02
  TRACK 56 AUDIO
    TITLE "0:"
    INDEX 01 00:54:23
  TRACK 57 AUDIO
    TITLE "4:cjc030_10411"
    INDEX 01 00:54:30
  TRACK 58 AUDIO
    TITLE "0:"
    INDEX 01 00:55:63
  TRACK 59 AUDIO
    TITLE "5:cjc030_10412"
    INDEX 01 00:55:73
  TRACK 60 AUDIO
    TITLE "0:"
    INDEX 01 00:57:19
